<?xml version="1.0" standalone="no"?>
<!DOCTYPE svg PUBLIC "-//W3C//DTD SVG 20010904//EN"
 "http://www.w3.org/TR/2001/REC-SVG-20010904/DTD/svg10.dtd">
<svg version="1.0" xmlns="http://www.w3.org/2000/svg"
 width="1280.000000pt" height="1280.000000pt" viewBox="0 0 1280.000000 1280.000000"
 preserveAspectRatio="xMidYMid meet">
<g transform="translate(0.000000,1280.000000) scale(0.100000,-0.100000)"
fill="#000000" stroke="none">
<path d="M3115 9774 c-451 -46 -771 -136 -1122 -319 -535 -278 -931 -709
-1123 -1220 -152 -405 -160 -874 -24 -1420 231 -930 884 -1931 2043 -3130 170
-176 227 -233 496 -494 432 -420 965 -902 1715 -1551 292 -253 770 -663 802
-688 14 -12 60 24 375 295 197 169 400 343 452 388 1544 1320 2601 2374 3266
3260 691 921 1026 1693 1086 2503 43 589 -166 1147 -594 1581 -416 423 -935
678 -1577 773 -217 32 -638 32 -870 1 -490 -68 -851 -213 -1197 -481 -261
-203 -483 -459 -760 -876 -70 -105 -134 -191 -144 -193 -11 -3 -19 -9 -19 -14
0 -5 -8 -9 -19 -9 -13 0 -32 23 -60 69 -181 305 -396 589 -609 805 -402 407
-830 616 -1427 697 -144 19 -582 34 -690 23z"/>
</g>
</svg>
