<?xml version="1.0" standalone="no"?>
<!DOCTYPE svg PUBLIC "-//W3C//DTD SVG 20010904//EN"
 "http://www.w3.org/TR/2001/REC-SVG-20010904/DTD/svg10.dtd">
<svg version="1.0" xmlns="http://www.w3.org/2000/svg"
 width="1280.000000pt" height="1280.000000pt" viewBox="0 0 1280.000000 1280.000000"
 preserveAspectRatio="xMidYMid meet">
<g transform="translate(0.000000,1280.000000) scale(0.100000,-0.100000)"
fill="#000000" stroke="none">
<path d="M5205 12668 c-1032 -42 -2253 -558 -2935 -1238 -323 -323 -494 -633
-507 -925 -9 -209 48 -365 186 -504 42 -43 95 -88 117 -99 53 -27 301 -96 454
-126 182 -36 369 -56 585 -63 1107 -34 2356 466 3150 1261 206 207 339 385
438 586 l52 105 -1 140 c-1 199 -31 298 -136 440 -187 254 -615 413 -1148 427
-52 2 -167 0 -255 -4z"/>
<path d="M6687 11268 c-185 -273 -507 -588 -826 -810 l-24 -17 87 -308 c47
-169 86 -315 86 -325 0 -29 -209 -165 -434 -283 -144 -76 -412 -195 -439 -195
-10 0 -35 27 -63 73 -121 189 -307 467 -313 467 -4 0 -80 -25 -170 -55 -733
-245 -1475 -297 -2156 -150 -60 13 -111 22 -113 20 -6 -5 174 -133 294 -208
424 -266 825 -408 1197 -424 89 -4 151 -10 155 -17 4 -6 226 -828 493 -1826
386 -1440 485 -1819 476 -1835 -5 -11 -72 -103 -147 -205 -210 -283 -269 -382
-311 -520 -29 -95 -30 -225 -4 -325 55 -214 213 -471 419 -684 406 -418 973
-670 1691 -753 167 -19 608 -16 785 6 304 37 555 94 849 192 90 31 167 52 172
47 4 -4 116 -192 250 -418 516 -874 1188 -1975 1206 -1975 2 0 -13 33 -35 72
-90 166 -580 1082 -862 1613 -166 314 -327 616 -356 672 -50 93 -53 102 -39
117 9 9 27 16 39 16 20 0 118 -179 815 -1488 436 -818 798 -1491 803 -1497 41
-40 -153 412 -406 948 -233 493 -370 775 -702 1446 -178 360 -324 661 -324
670 0 10 40 38 108 75 143 79 361 223 502 332 144 112 376 337 487 472 241
292 425 649 507 983 108 442 58 889 -142 1274 -37 71 -66 109 -137 181 -76 76
-105 97 -185 137 -186 91 -348 121 -869 162 -179 14 -336 28 -348 30 -22 5
-29 14 -378 500 -261 362 -1197 1656 -1618 2235 -174 239 -317 441 -317 448 0
7 20 37 44 67 122 149 216 375 271 648 28 142 61 497 46 497 -4 0 -33 -37 -64
-82z m704 -3733 c720 -1188 1309 -2165 1309 -2172 0 -19 -225 -247 -315 -320
-168 -135 -368 -256 -577 -347 -147 -64 -401 -151 -421 -143 -7 3 -507 1052
-1112 2332 -824 1745 -1096 2331 -1089 2342 5 9 43 29 84 45 200 78 553 265
720 382 36 25 71 44 79 43 8 -1 603 -974 1322 -2162z m1943 -2551 c297 -163
547 -301 554 -307 25 -19 10 -45 -91 -157 -355 -394 -876 -750 -1458 -995
-248 -105 -723 -252 -906 -281 l-43 -7 0 139 c0 351 22 1059 33 1070 7 7 53
24 102 39 120 36 348 126 460 183 255 127 468 281 655 473 74 75 139 138 144
138 4 1 252 -132 550 -295z"/>
</g>
</svg>
